<?xml version="1.0" ?><!DOCTYPE svg  PUBLIC '-//W3C//DTD SVG 1.1//EN'  'http://www.w3.org/Graphics/SVG/1.1/DTD/svg11.dtd'><svg enable-background="new 0 0 64 64" id="Layer_1" version="1.1" viewBox="0 0 64 64" xml:space="preserve" xmlns="http://www.w3.org/2000/svg" xmlns:xlink="http://www.w3.org/1999/xlink"><g><g><path d="M61.1,3.4C57.2-0.7,51.4,1.1,47.7,4c-0.6,0.4-1.3,0.4-1.9,0c-3.7-2.9-9.5-4.7-13.4-0.6     c-2.7,2.8-3.5,6.9-2.5,10.7c-0.2-0.2-0.4-0.5-0.6-0.7c-3-3.2-7.9-3-12.5,0.5c-0.5,0.4-1.1,0.4-1.6,0c-4.6-3.5-9.5-3.7-12.5-0.5     C-1,17.3-0.9,23.7,3.1,28.1l10.6,10c0.4,0.3,1.3,0.6,1.3,0.7v24.7c0,0.3,0.2,0.5,0.5,0.5s0.5-0.2,0.5-0.5V39c1,0,1.6-0.3,2.3-0.9     l1.9-1.8c0,0,0,0,0,0l9.3,8.8c0.4,0.4,0.5,0.6,1.5,0.7v17.7c0,0.3,0.2,0.5,0.5,0.5s0.5-0.2,0.5-0.5V45.9c1-0.1,1.2-0.3,1.6-0.8     l9.3-8.8c1.4-1.6,2.3-3.5,2.6-5.4C45.7,30.9,46,31,46,31v32.5c0,0.3,0.2,0.5,0.5,0.5s0.5-0.2,0.5-0.5V31.1c1-0.1,1.5-0.4,2.1-0.9     l11.6-10.9C65,14.6,65.1,7.6,61.1,3.4z M31.7,17.9c0.3,0.5,0.7,0.9,1,1.3l2.8,2.6c-1.1,0.4-2.3,1-3.4,1.9     c-0.2,0.2-0.5,0.2-0.8,0.2C32.1,21.9,32.2,19.9,31.7,17.9z M16.9,36.7c-0.5,0.5-1.3,0.5-1.8,0l-10.6-10     c-3.2-3.5-3.4-8.8-0.4-11.9c2.8-2.9,7-1.4,9.8,0.7c1.2,0.9,2.9,0.9,4.1,0c2.8-2.1,7.1-3.6,9.8-0.7c2,2.1,2.6,5.2,1.8,8.1     c-0.5-0.3-1-0.6-1.6-0.8c0-0.4,0.1-0.8,0.1-1.4c0-2-0.2-2.9-1.7-4.3c-0.5-0.5-1.3-0.7-1.9-0.3c-0.3,0.2-0.5,0.6-0.5,1     c0,0.4,0.1,0.8,0.3,1.1c0.7,0.8,0.8,1.6,0.7,2.5c0,0.2,0,0.4,0,0.6c-0.2,0-0.4,0-0.6,0c-1.8,0-3.5,0.7-4.7,2     c-2.8,3-3.1,7.7-0.9,11.4L16.9,36.7z M25.2,17.5c-0.1-0.1-0.1-0.2-0.1-0.4c0-0.1,0.1-0.2,0.1-0.3c0.1-0.1,0.4,0,0.6,0.2     c1.2,1.2,1.4,1.7,1.4,3.6c0,0.4,0,0.7,0,1c-0.3-0.1-0.6-0.2-1-0.2c0-0.3,0-0.5,0-0.8C26.2,19.6,26.1,18.6,25.2,17.5z M41.5,34.9     l-9.2,8.7c-0.4,0.4-1.1,0.4-1.4,0l-9.2-8.7c-2.7-3-2.9-7.5-0.3-10.2c0.9-0.9,2-1.4,3.2-1.4c1.5,0,3.2,0.6,4.8,1.7     c0.1,0.1,0.2,0.2,0.4,0.3c0,0,0.1,0,0.1,0c1.1,0.8,2.6,0.8,3.6,0c1.7-1.3,3.6-2,5.1-2c1.3,0,2.4,0.5,3.2,1.4     C44.4,27.4,44.2,31.9,41.5,34.9z M59.3,17.8L47.8,28.7c-0.6,0.6-1.5,0.6-2.1,0c0,0,0,0-0.1,0c-0.2-2-0.9-3.8-2.3-5.3     c-1.2-1.3-2.9-2-4.7-2c-0.2,0-0.4,0-0.6,0l-3.7-3.5c-3.5-3.9-3.7-9.6-0.4-13.1c3-3.2,7.7-1.6,10.8,0.8c1.3,1,3,1,4.3,0     c3.1-2.3,7.7-4,10.8-0.8C62.9,8.3,62.8,14,59.3,17.8z" fill="#4D4D4D"/><path d="M58.1,6.2c-0.6-0.6-1.5-0.7-2-0.3c-0.3,0.2-0.5,0.6-0.6,1.1c-0.1,0.5,0.1,0.9,0.4,1.2     c0.8,0.9,0.9,1.8,0.9,2.9c0,1.1-0.1,1.8-0.9,2.7c-0.3,0.3-0.4,0.7-0.4,1.1c0,0.4,0.3,0.7,0.6,1c0.3,0.2,0.6,0.3,1,0.3     c0.4,0,0.8-0.1,1-0.4c1.6-1.6,1.9-2.2,1.9-4.7C60,8.8,59.7,7.8,58.1,6.2z M57.4,15c-0.1,0.1-0.2,0.1-0.3,0.1     c-0.1,0-0.3-0.1-0.4-0.1c-0.1-0.1-0.2-0.1-0.2-0.3c0-0.1,0-0.2,0.1-0.3c1-1.2,1.1-2.2,1.1-3.4c0-1.2-0.1-2.4-1.1-3.6     c-0.1-0.1-0.1-0.3-0.1-0.5c0-0.2,0.1-0.3,0.2-0.4c0,0,0.1,0,0.2,0c0.2,0,0.4,0.1,0.6,0.3c1.4,1.3,1.6,2,1.6,4.2     C58.9,13.3,58.8,13.7,57.4,15z" fill="#4D4D4D"/><path d="M38.6,25.7c-0.3,0.2-0.5,0.5-0.5,0.9c0,0.4,0.1,0.8,0.3,1.1c0.6,0.7,0.7,1.4,0.7,2.3c0,0.8,0,1.4-0.7,2.1     c-0.2,0.3-0.4,0.6-0.3,1c0,0.3,0.2,0.6,0.5,0.9c0.3,0.2,0.6,0.3,0.9,0.3c0.3,0,0.7-0.1,0.9-0.4c1.3-1.3,1.5-1.9,1.6-3.8     c0-1.9-0.2-2.7-1.6-4.1C39.9,25.5,39.1,25.3,38.6,25.7z M39.7,33.1c-0.1,0.1-0.1,0.1-0.2,0.1c-0.1,0-0.2,0-0.3-0.1     c0,0-0.1-0.1-0.1-0.2c0-0.1,0-0.1,0.1-0.2c0.9-1,0.9-1.8,0.9-2.8c0-1-0.1-2-0.9-3c-0.1-0.1-0.1-0.2-0.1-0.3     c0-0.1,0.1-0.2,0.2-0.2c0.1,0,0.3,0.1,0.4,0.2c1.1,1.1,1.3,1.6,1.3,3.3C40.9,31.7,40.8,32,39.7,33.1z" fill="#4D4D4D"/></g></g></svg>